<svg width="54" height="54" viewBox="0 0 54 54" fill="none" xmlns="http://www.w3.org/2000/svg">
<path d="M47.4304 19.3051V34.695C47.4304 37.215 46.0804 39.5551 43.8979 40.8376L30.5329 48.5551C28.3504 49.8151 25.6504 49.8151 23.4454 48.5551L10.0804 40.8376C7.89785 39.5776 6.54785 37.2375 6.54785 34.695V19.3051C6.54785 16.7851 7.89785 14.445 10.0804 13.1625L23.4454 5.445C25.6279 4.185 28.3279 4.185 30.5329 5.445L43.8979 13.1625C46.0804 14.445 47.4304 16.7626 47.4304 19.3051Z" stroke="#00B2B2" stroke-width="4" stroke-linecap="round" stroke-linejoin="round"/>
<path d="M27.0003 24.7501C29.8957 24.7501 32.2428 22.4029 32.2428 19.5075C32.2428 16.6122 29.8957 14.2651 27.0003 14.2651C24.105 14.2651 21.7578 16.6122 21.7578 19.5075C21.7578 22.4029 24.105 24.7501 27.0003 24.7501Z" stroke="#00B2B2" stroke-width="4" stroke-linecap="round" stroke-linejoin="round"/>
<path d="M36 37.4848C36 33.4348 31.9725 30.1499 27 30.1499C22.0275 30.1499 18 33.4348 18 37.4848" stroke="#00B2B2" stroke-width="4" stroke-linecap="round" stroke-linejoin="round"/>
</svg>
