<svg width="24" height="25" viewBox="0 0 24 25" fill="none" xmlns="http://www.w3.org/2000/svg">
<g clip-path="url(#clip0_393_27752)">
<path d="M12 12.5C13.5913 12.5 15.1174 11.8679 16.2426 10.7426C17.3679 9.61742 18 8.0913 18 6.5C18 4.9087 17.3679 3.38258 16.2426 2.25736C15.1174 1.13214 13.5913 0.5 12 0.5C10.4087 0.5 8.88258 1.13214 7.75736 2.25736C6.63214 3.38258 6 4.9087 6 6.5C6 8.0913 6.63214 9.61742 7.75736 10.7426C8.88258 11.8679 10.4087 12.5 12 12.5ZM7.5 15.0875C4.03125 16.1047 1.5 19.3109 1.5 23.1078C1.5 23.8766 2.12344 24.5 2.89219 24.5H21.1078C21.8766 24.5 22.5 23.8766 22.5 23.1078C22.5 19.3109 19.9688 16.1047 16.5 15.0875V17.4688C17.7938 17.8016 18.75 18.9781 18.75 20.375V22.25C18.75 22.6625 18.4125 23 18 23H17.25C16.8375 23 16.5 22.6625 16.5 22.25C16.5 21.8375 16.8375 21.5 17.25 21.5V20.375C17.25 19.5453 16.5797 18.875 15.75 18.875C14.9203 18.875 14.25 19.5453 14.25 20.375V21.5C14.6625 21.5 15 21.8375 15 22.25C15 22.6625 14.6625 23 14.25 23H13.5C13.0875 23 12.75 22.6625 12.75 22.25V20.375C12.75 18.9781 13.7063 17.8016 15 17.4688V14.7922C14.7188 14.7641 14.4328 14.75 14.1422 14.75H9.85781C9.56719 14.75 9.28125 14.7641 9 14.7922V17.8578C10.0828 18.1812 10.875 19.1844 10.875 20.375C10.875 21.8234 9.69844 23 8.25 23C6.80156 23 5.625 21.8234 5.625 20.375C5.625 19.1844 6.41719 18.1812 7.5 17.8578V15.0875ZM8.25 21.5C8.54837 21.5 8.83452 21.3815 9.0455 21.1705C9.25647 20.9595 9.375 20.6734 9.375 20.375C9.375 20.0766 9.25647 19.7905 9.0455 19.5795C8.83452 19.3685 8.54837 19.25 8.25 19.25C7.95163 19.25 7.66548 19.3685 7.4545 19.5795C7.24353 19.7905 7.125 20.0766 7.125 20.375C7.125 20.6734 7.24353 20.9595 7.4545 21.1705C7.66548 21.3815 7.95163 21.5 8.25 21.5Z" fill="white"/>
</g>
<defs>
<clipPath id="clip0_393_27752">
<rect width="24" height="24" fill="white" transform="translate(0 0.5)"/>
</clipPath>
</defs>
</svg>
